<!-- <svg fill="none" class="icon icon-search" viewBox="0 0 18 19"><path fill="currentColor" fill-rule="evenodd" d="M11.03 11.68A5.784 5.784 0 1 1 2.85 3.5a5.784 5.784 0 0 1 8.18 8.18m.26 1.12a6.78 6.78 0 1 1 .72-.7l5.4 5.4a.5.5 0 1 1-.71.7z" clip-rule="evenodd"/></svg> -->

<svg class="icon icon-search" xmlns="http://www.w3.org/2000/svg" viewBox="0 0 491.52 491.52">
  <ellipse opacity="0.5" fill="#ddeef1" cx="158.537" cy="158.536" rx="129.777" ry="129.777"/>
  <path opacity="0.5" fill="#fff" d="M98.081 234.62c-43.316-43.315-43.882-112.979-1.264-155.595 9.509-9.511 20.41-16.745 32.021-21.96-16.497 4.812-32.056 13.702-45.064 26.71-41.288 41.289-41.289 108.231 0 149.521 18.282 18.281 41.596 28.431 65.483 30.523-18.696-4.833-36.467-14.489-51.176-29.199z"/>
  <path fill="#874356" d="M270.636 46.433c-61.912-61.912-162.291-61.911-224.202.001s-61.912 162.291-.001 224.202c57.054 57.054 146.703 61.394 208.884 13.294l14.18 14.182 28.615-28.613-14.182-14.182c48.099-62.18 43.76-151.83-13.294-208.884zM250.301 250.302c-50.681 50.681-132.852 50.681-183.534 0-50.68-50.681-50.68-132.852.002-183.533s132.85-50.681 183.531 0c50.682 50.681 50.682 132.852.001 183.533z"/>
  <path fill="#e1622b" d="m305.823 258.865-46.959 46.958c-2.669 2.67-2.669 6.996 0 9.665l174.339 174.338c12.132 12.133 68.755-44.49 56.623-56.623L315.488 258.865c-2.669-2.669-6.995-2.669-9.665 0z"/>
  <rect fill="#EBF0F3" x="409.379" y="442.628" width="80.077" height="13.594" transform="matrix(-.7071 .7071 -.7071 -.7071 1084.995 449.429)"/>
  <rect fill="#EBF0F3" x="260.671" y="293.889" width="80.077" height="13.594" transform="matrix(-.7071 .7071 -.7071 -.7071 725.961 300.668)"/>
</svg>