<!-- <svg class="icon icon-instagram" viewBox="0 0 20 20"><path fill="currentColor" fill-rule="evenodd" d="M13.23 3.492c-.84-.037-1.096-.046-3.23-.046-2.144 0-2.39.01-3.238.055-.776.027-1.195.164-1.487.273a2.4 2.4 0 0 0-.912.593 2.5 2.5 0 0 0-.602.922c-.11.282-.238.702-.274 1.486-.046.84-.046 1.095-.046 3.23s.01 2.39.046 3.229c.004.51.097 1.016.274 1.495.145.365.319.639.602.913.282.282.538.456.92.602.474.176.974.268 1.479.273.848.046 1.103.046 3.238.046s2.39-.01 3.23-.046c.784-.036 1.203-.164 1.486-.273.374-.146.648-.329.921-.602.283-.283.447-.548.602-.922.177-.476.27-.979.274-1.486.037-.84.046-1.095.046-3.23s-.01-2.39-.055-3.229c-.027-.784-.164-1.204-.274-1.495a2.4 2.4 0 0 0-.593-.913 2.6 2.6 0 0 0-.92-.602c-.284-.11-.703-.237-1.488-.273ZM6.697 2.05c.857-.036 1.131-.045 3.302-.045a63 63 0 0 1 3.302.045c.664.014 1.321.14 1.943.374a4 4 0 0 1 1.414.922c.41.397.728.88.93 1.414.23.622.354 1.279.365 1.942C18 7.56 18 7.824 18 10.005c0 2.17-.01 2.444-.046 3.292-.036.858-.173 1.442-.374 1.943-.2.53-.474.976-.92 1.423a3.9 3.9 0 0 1-1.415.922c-.51.191-1.095.337-1.943.374-.857.036-1.122.045-3.302.045-2.171 0-2.445-.009-3.302-.055-.849-.027-1.432-.164-1.943-.364a4.15 4.15 0 0 1-1.414-.922 4.1 4.1 0 0 1-.93-1.423c-.183-.51-.329-1.085-.365-1.943C2.009 12.45 2 12.167 2 10.004c0-2.161 0-2.435.055-3.302.027-.848.164-1.432.365-1.942a4.4 4.4 0 0 1 .92-1.414 4.2 4.2 0 0 1 1.415-.93c.51-.183 1.094-.33 1.943-.366Zm.427 4.806a4.105 4.105 0 1 1 5.805 5.805 4.105 4.105 0 0 1-5.805-5.805m1.882 5.371a2.668 2.668 0 1 0 2.042-4.93 2.668 2.668 0 0 0-2.042 4.93m5.922-5.942a.958.958 0 1 1-1.355-1.355.958.958 0 0 1 1.355 1.355" clip-rule="evenodd"/></svg> -->

<!-- <svg class="icon icon-instagram" xmlns="http://www.w3.org/2000/svg" viewBox="0 0 508 508">

<g id="SVGRepo_bgCarrier" stroke-width="0"/>

<g id="SVGRepo_tracerCarrier" stroke-linecap="round" stroke-linejoin="round" stroke="#CCCCCC" stroke-width="3.048"/>

<g id="SVGRepo_iconCarrier"> <path style="fill:#ca9765;" d="M504,378.8c0,68.8-56.4,125.2-125.2,125.2H129.2C60.4,504,4,447.6,4,378.8V129.2 C4,60.4,60.4,4,129.2,4h249.6C447.6,4,504,60.4,504,129.2V378.8z"/> <path style="fill:#FFFFFF;" d="M349.2,99.2H158.4c-33.2,0-59.2,26-59.2,59.2V222v127.6c0,33.2,26,59.2,59.2,59.2h191.2 c33.2,0,59.2-26,59.2-59.2V222v-63.6c0-33.2-26-59.2-59.2-59.2 M366.4,134h6.4v6.8v46h-52.4V134H366.4z M209.6,222 c10-14,26-22.8,44.4-22.8s34.4,9.2,44.4,22.8c6.4,9.2,10.4,20,10.4,32c0,30.4-24.8,54.8-54.8,54.8c-30.4,0-54.8-24.8-54.8-54.8 C199.2,242,202.8,231.2,209.6,222 M380.8,349.6c0,16.4-14.8,31.2-31.2,31.2H158.4c-16.4,0-31.2-14.8-31.2-31.2V222.4h48 c-4,8-6.4,20.4-6.4,32c0,47.2,38.4,85.2,85.2,85.2c47.2,0,85.2-38,85.2-85.2c0-11.2-2.4-24-6.4-32h48L380.8,349.6L380.8,349.6z"/> <path d="M378.8,508H129.2C58,508,0,450,0,378.8V129.2C0,58,58,0,129.2,0h249.6C450,0,508,58,508,129.2v249.6 C508,450,450,508,378.8,508z M129.2,8C62.4,8,8,62.4,8,129.2v249.6C8,445.6,62.4,500,129.2,500h249.6c66.8,0,121.2-54.4,121.2-121.2 V129.2C500,62.4,445.6,8,378.8,8H129.2z"/> <path d="M370,484H138c-62,0-114-52.4-114-114V138C24,76,76,24,138,24h231.2c2.4,0,4,1.6,4,4s-1.6,4-4,4H138C80.4,32,32,80.4,32,138 v232c0,57.6,48.8,106,106,106h232c57.6,0,106-48.8,106-106V258c0-2.4,1.6-4,4-4s4,1.6,4,4v112C484,432,432,484,370,484z"/> <path d="M446.8,65.2c-1.2,0-2-0.4-2.8-1.2c-19.6-19.6-49.2-32-77.2-32c-2.4,0-4-1.6-4-4s1.6-4,4-4c30,0,61.6,13.2,82.8,34.4 c1.6,1.6,1.6,4,0,5.6C449.2,64.8,448,65.2,446.8,65.2z"/> <path d="M480,234c-2.4,0-4-1.6-4-4v-59.2c0-2.4,1.6-4,4-4s4,1.6,4,4V230C484,232.4,482.4,234,480,234z"/> <path d="M254,312.8c-32.4,0-58.8-26.4-58.8-58.8c0-12.4,4-24.4,11.2-34.4c11.2-15.2,28.8-24.4,47.6-24.4s36.8,9.2,47.6,24.4 c7.2,10,11.2,22,11.2,34.4C312.8,286.4,286.4,312.8,254,312.8z M254,203.2c-16.4,0-31.6,8-41.2,21.2c-6.4,8.8-9.6,19.2-9.6,29.6 c0,28,22.8,50.8,50.8,50.8s50.8-22.8,50.8-50.8c0-10.8-3.2-20.8-9.6-29.6C285.6,211.2,270.4,203.2,254,203.2z"/> <path d="M349.6,384.8H158.4c-18.8,0-35.2-16.4-35.2-35.2V222.4c0-2.4,1.6-4,4-4h48c1.2,0,2.8,0.8,3.6,2s0.8,2.8,0,4 c-3.6,7.2-6,18.8-6,30c0,44.8,36.4,81.2,81.2,81.2s81.2-36.4,81.2-81.2c0-11.2-2.4-23.2-6-30c-0.8-1.2-0.4-2.8,0-4 c0.8-1.2,2-2,3.6-2h48c2.4,0,4,1.6,4,4V350C384.8,368.4,368.4,384.8,349.6,384.8z M131.2,226.4V350c0,14.4,13.2,27.2,27.2,27.2 h191.2c14.4,0,27.2-12.8,27.2-27.2V226.4h-38c2.8,8,4.4,18,4.4,28c0,49.2-40,89.2-89.2,89.2s-89.2-40-89.2-89.2c0-10,1.6-20,4.4-28 L131.2,226.4L131.2,226.4z"/> <path d="M320.8,190.8c-1.2,0-2-0.4-2.8-1.2s-1.2-1.6-1.2-2.8V134c0-2.4,1.6-4,4-4h52.4c1.2,0,2,0.4,2.8,1.2s1.2,1.6,1.2,2.8v52.8 c0,2.4-1.6,4-4,4H320.8L320.8,190.8z M324.8,138v44.8h44.4V138H324.8z"/> <path d="M349.6,412.8H158.4c-35.2,0-63.2-27.6-63.2-63.2V158.4c0-35.2,27.6-63.2,63.2-63.2h191.2c35.6,0,63.6,28,63.6,63.6 c0,2.4-1.6,4-4,4s-4-1.6-4-4c0-31.2-24.4-55.6-55.6-55.6H158.4c-30.8,0-55.2,24-55.2,55.2V350c0,30.8,24,55.2,55.2,55.2h191.2 c30.8,0,55.2-24,55.2-55.2v-96c0-2.4,1.6-4,4-4s4,1.6,4,4v95.6C412.8,385.2,385.2,412.8,349.6,412.8z"/> </g>

</svg> -->
<svg class="icon icon-instagram" xmlns="http://www.w3.org/2000/svg"  viewBox="0 0 396.8 396.8" xml:space="preserve" fill="#000000"><g  stroke-width="0"></g><g  stroke-linecap="round" stroke-linejoin="round"></g><g > <path style="fill:#CC9966;" d="M325.6,22H71.2C44.1,22,22,44.1,22,71.2v254.4c0,27.1,22.1,49.2,49.2,49.2h254.4 c27.1,0,49.2-22.1,49.2-49.2V71.2C374.8,44.1,352.7,22,325.6,22z M304.1,80.9c-2.7-11.3,4-22.8,15-25.6c1.8-0.4,3.6-0.6,5.3-0.6 c9.7,0,18,6.4,20.3,15.7c2.7,10.6-4.2,22.1-15.3,25.5c-1.9,0.4-3.4,0.4-5.4,0.4C314.8,96.4,306.2,89.7,304.1,80.9z M198.4,90 c58.4,0,106,47.6,106,106s-47.6,106-106,106s-106-47.6-106-106S140,90,198.4,90z"></path> <path style="fill:#875426;" d="M343.2,70.7c-2.2-8.5-10.4-14.9-19.2-14.9c-1.1,0-3.3,0-5.3,1.2c-4.7,1.2-8.8,4.3-11.3,8.4 c-2.7,4.5-3.4,9.9-1.9,15c1.9,8.7,9.3,14.8,18.3,14.8c1.8,0,3.6-0.3,5.4-0.8c5.1-1.1,9.5-4.2,12.1-8.6 C344.1,81.3,344.7,75.8,343.2,70.7z"></path> <path style="fill:#42210B;" d="M310.4,79.2c2.4,8,10.4,12.8,17.6,10.4c8-2.4,12.8-10.4,10.4-17.6c-1.6-6.4-8-11.2-14.4-11.2 c-0.8,0-2.4,0-4,0.8C312.8,63.2,308,71.2,310.4,79.2z M354.4,68c4,16.8-5.6,32.8-22.4,37.6c-2.4,0.8-4.8,0.8-8,0.8 c-13.6,0-26.4-9.6-29.6-23.2c-4-16,5.6-32.8,22.4-37.6C332.8,41.6,349.6,51.2,354.4,68z"></path> <path style="fill:#D9CDC1;" d="M198.4,114.6c41.6-0.4,75.2,40.6,75.2,82.2S240,272,198.4,272s-82.1-33.6-82.2-75.2 C116.1,148,153.4,115,198.4,114.6z"></path> <path style="fill:#FFF8EF;" d="M214.4,137.6c-41.6,0-75.2,33.6-75.2,75.2c0,16.8,5.6,32,14.4,44c12.8,8.8,28,14.4,44,14.4 c41.6,0,75.2-33.6,75.2-75.2c0-16.8-5.6-32-14.4-44C246.4,143.2,231.2,137.6,214.4,137.6z"></path> <path style="fill:#42210B;" d="M198.4,100.8c53.1,0,96,42.9,96,96s-42.9,96-96,96s-96-42.9-96-96S145.3,100.8,198.4,100.8z M272.8,196c0-41.6-33.6-75.2-75.2-75.2s-75.2,33.6-75.2,75.2s33.6,75.2,75.2,75.2S272.8,237.6,272.8,196z"></path> <path style="fill:#875426;" d="M288.8,196c0-50.4-40.8-91.2-91.2-91.2s-91.2,40.8-91.2,91.2s40.8,91.2,91.2,91.2 C248.8,287.2,288.8,246.4,288.8,196z M298.4,196c0,55.2-44.8,100-100,100s-100-44.8-100-100s44.8-100,100-100S298.4,140.8,298.4,196 z"></path> <path style="fill:#42210B;" d="M198.4,296c55.2,0,100-44.8,100-100s-44.8-100-100-100s-100,44.8-100,100S143.2,296,198.4,296z M314.4,196c0,64-52,116-116,116s-116-52-116-116s52-116,116-116S314.4,132,314.4,196z"></path> <path style="fill:#996632;" d="M329.7,5H67.1C32.8,5,5,32.9,5,67.1v262.5c0,34.3,27.9,62.1,62.1,62.1h262.5 c34.3,0,62.1-27.9,62.1-62.1V67.1C391.8,32.9,363.9,5,329.7,5z M365,328.8c0,19.5-15.8,35.3-35.3,35.3h-5.2v0.8H67.1 c-19.5,0-35.3-15.8-35.3-35.3V67.1c0-19.5,15.8-35.3,35.3-35.3h262.5c19.5,0,35.3,15.8,35.3,35.3v261.7H365z"></path> <path style="fill:#42210B;" d="M325.6,0c39.2,0,71.2,32,71.2,71.2v254.4c0,39.2-32,71.2-71.2,71.2H71.2C32,396.8,0,364.8,0,325.6 V71.2C0,32,32,0,71.2,0H325.6z M380.8,71.2c0-30.4-24.8-55.2-55.2-55.2H71.2C40.8,16,16,40.8,16,71.2v254.4 c0,30.4,24.8,55.2,55.2,55.2h254.4c30.4,0,55.2-24.8,55.2-55.2L380.8,71.2L380.8,71.2z"></path> </g></svg>