<!-- <svg xmlns="http://www.w3.org/2000/svg" fill="none" class="icon icon-account" viewBox="0 0 18 19"><path fill="currentColor" fill-rule="evenodd" d="M6 4.5a3 3 0 1 1 6 0 3 3 0 0 1-6 0m3-4a4 4 0 1 0 0 8 4 4 0 0 0 0-8m5.58 12.15c1.12.82 1.83 2.24 1.91 4.85H1.51c.08-2.6.79-4.03 1.9-4.85C4.66 11.75 6.5 11.5 9 11.5s4.35.26 5.58 1.15M9 10.5c-2.5 0-4.65.24-6.17 1.35C1.27 12.98.5 14.93.5 18v.5h17V18c0-3.07-.77-5.02-2.33-6.15-1.52-1.1-3.67-1.35-6.17-1.35" clip-rule="evenodd"/></svg> -->
<svg
  class="icon icon-account"
  viewBox="0 0 128 128"
  xmlns="http://www.w3.org/2000/svg"
  fill="none"
>
  <style>
    .head { fill: #FFE0B2; }
    .line { fill: #424242; }
    .body { fill: #93cedd; }
  </style>

  <g>
    <circle class="head" cx="64" cy="33" r="31"/>

    <path
      class="line"
      d="M64,66c-18.2,0-33-14.8-33-33S45.8,0,64,0s33,14.8,33,33S82.2,66,64,66z
      M64,4C48,4,35,17,35,33s13,29,29,29s29-13,29-29S80,4,64,4z"
    />

    <path
      class="body"
      d="M126,126c0-34.2-27.8-62-62-62S2,91.8,2,126H126z"
    />

    <path
      class="line"
      d="M126,128H2c-1.1,0-2-0.9-2-2c0-25.9,15.5-48.3,37.7-58.3
      c8-3.6,17-5.7,26.3-5.7c6.6,0,13,1,19,2.9c26,8.1,45,32.4,45,61.1
      C128,127.1,127.1,128,126,128z
      M4,124h60h60c-0.6-19.4-10.5-36.4-25.3-46.9c-6.1-4.4-13.1-7.6-20.6-9.4
      C73.5,66.6,68.8,66,64,66c-5.9,0-11.6,0.9-17,2.4c-5,1.5-9.7,3.6-14,6.2
      C16.2,84.8,4.7,103.1,4,124z"
    />
  </g>
</svg>