<!-- <svg xmlns="http://www.w3.org/2000/svg" fill="none" class="icon icon-cart" viewBox="0 0 40 40"><path fill="currentColor" fill-rule="evenodd" d="M20.5 6.5a4.75 4.75 0 0 0-4.75 4.75v.56h-3.16l-.77 11.6a5 5 0 0 0 4.99 5.34h7.38a5 5 0 0 0 4.99-5.33l-.77-11.6h-3.16v-.57A4.75 4.75 0 0 0 20.5 6.5m3.75 5.31v-.56a3.75 3.75 0 1 0-7.5 0v.56zm-7.5 1h7.5v.56a3.75 3.75 0 1 1-7.5 0zm-1 0v.56a4.75 4.75 0 1 0 9.5 0v-.56h2.22l.71 10.67a4 4 0 0 1-3.99 4.27h-7.38a4 4 0 0 1-4-4.27l.72-10.67z"/></svg> -->

<svg class="icon icon-cart" xmlns="http://www.w3.org/2000/svg" viewBox="0 0 120 120">
  <style>
    .st0{fill:#93cedd}
    .st1{opacity:.1}
    .st2{fill:#e1622b}
    .st3{fill:#874356}
  </style>

  <path class="st0" d="M17.8 57.2 24.7 91.3c.7 3.6 4.4 6.3 8.6 6.3h53.4c4.3 0 7.9-2.7 8.6-6.3l6.9-34.1H17.8ZM47.4 88c0 1-.8 1.8-1.8 1.8h-4.2c-1 0-1.8-.8-1.8-1.8V66.7c0-1 .8-1.8 1.8-1.8h4.2c1 0 1.8.8 1.8 1.8V88Zm16.5 0c0 1-.8 1.8-1.8 1.8h-4.2c-1 0-1.8-.8-1.8-1.8V66.7c0-1 .8-1.8 1.8-1.8h4.2c1 0 1.8.8 1.8 1.8V88Zm16.6 0c0 1-.8 1.8-1.8 1.8h-4.2c-1 0-1.8-.8-1.8-1.8V66.7c0-1 .8-1.8 1.8-1.8h4.2c1 0 1.8.8 1.8 1.8V88Z"/>

  <path class="st1" d="M89.1 96.7H35.7c-4.3 0-7.9-2.7-8.6-6.3l-6.7-33.2h-2.5l6.9 34.1c.7 3.6 4.4 6.3 8.6 6.3h53.4c1.6 0 3.2-.4 4.5-1.1-.8.1-1.5.2-2.2.2Z"/>

  <path class="st2" d="M105.4 57.2H14.6c-1 0-1.8-.8-1.8-1.8v-6.6c0-1 .8-1.8 1.8-1.8h90.9c1 0 1.8.8 1.8 1.8v6.6c0 1-.9 1.8-1.9 1.8Z"/>

  <path class="st1" d="M15.9 56.8c-1 0-1.8-.8-1.8-1.8v-6.6c0-.6.3-1.1.7-1.4h-.2c-1 0-1.8.8-1.8 1.8v6.6c0 1 .8 1.8 1.8 1.8h90.9c.4 0 .8-.2 1.1-.4H15.9Z"/>

  <path class="st3" d="m64.6 22.7-3.6 2.2c-.9.5-.9 2-.2 3.2L77 54.8c.8 1.3 2.1 1.9 2.9 1.3l3.6-2.2c.9-.5.9-2 .2-3.2L67.6 24c-.8-1.3-2.1-1.9-3-1.3Z"/>

  <path class="st3" d="m55.4 22.7 3.6 2.2c.9.5.9 2 .2 3.2L43 54.8c-.8 1.3-2.1 1.9-2.9 1.3L36.5 54c-.9-.5-.9-2-.2-3.2L52.4 24c.8-1.2 2.1-1.8 3-1.3Z"/>

  <path class="st1" d="M59.2 27.4 43.1 54.1c-.8 1.3-2.1 1.9-2.9 1.3l-3.6-2.2c-.4-.2-.6-.7-.7-1.2-.1.8.1 1.5.7 1.9l3.6 2.2c.9.5 2.2-.1 2.9-1.3l16.1-26.7c.4-.7.6-1.4.5-2.1-.1.6-.3 1.1-.5 1.5Z"/>

  <path class="st1" d="M60.8 27.4 76.9 54.1c.8 1.3 2.1 1.9 2.9 1.3l3.6-2.2c.4-.2.6-.7.7-1.2.1.8-.1 1.5-.7 1.9l-3.6 2.2c-.9.5-2.2-.1-2.9-1.3L60.8 28.1c-.4-.7-.6-1.4-.5-2.1.1.5.3 1 .5 1.4Z"/>

  <path class="st0" d="M40 50.2c-1 0-1.9.8-1.9 1.9 0 1 .8 1.9 1.9 1.9 1 0 1.9-.8 1.9-1.9 0-1-.8-1.9-1.9-1.9Z"/>

  <path class="st0" d="M80 50.2c-1 0-1.9.8-1.9 1.9 0 1 .8 1.9 1.9 1.9s1.9-.8 1.9-1.9c0-1-.8-1.9-1.9-1.9Z"/>

  <path class="st1" d="M40.2 53.7c-1 0-1.9-.8-1.9-1.9 0-.5.2-1 .6-1.4-.5.3-.8.9-.8 1.6 0 1 .8 1.9 1.9 1.9.5 0 .9-.2 1.3-.5-.4.2-.7.3-1.1.3Z"/>

  <path class="st1" d="M80.3 53.7c-1 0-1.9-.8-1.9-1.9 0-.5.2-1 .6-1.4-.5.3-.8.9-.8 1.6 0 1 .8 1.9 1.9 1.9.5 0 .9-.2 1.3-.5-.4.2-.7.3-1.1.3Z"/>
</svg>