<!-- <svg xmlns="http://www.w3.org/2000/svg" fill="none" class="icon icon-cart-empty" viewBox="0 0 40 40"><path fill="currentColor" fill-rule="evenodd" d="M15.75 11.8h-3.16l-.77 11.6a5 5 0 0 0 4.99 5.34h7.38a5 5 0 0 0 4.99-5.33L28.4 11.8zm0 1h-2.22l-.71 10.67a4 4 0 0 0 3.99 4.27h7.38a4 4 0 0 0 4-4.27l-.72-10.67h-2.22v.63a4.75 4.75 0 1 1-9.5 0zm8.5 0h-7.5v.63a3.75 3.75 0 1 0 7.5 0z"/></svg> -->
<svg class="icon icon-cart-empty" xmlns="http://www.w3.org/2000/svg" viewBox="0 0 500 500">
  <style>
    .top{fill:#db5924}
    .body{fill:#95d2de}
    .handle{fill:#7c354a}
    .hole{fill:#fff}
    .shadow{opacity:.12}
  </style>

  <rect class="top" x="70" y="162" width="360" height="39" rx="16"/>

  <path class="body" d="M96 206h308l-18 134c-3 20-17 32-34 32H148c-17 0-31-12-34-32L96 206z"/>

  <path class="shadow" d="M96 206h24l22 134c3 20 17 32 34 32h-28c-17 0-31-12-34-32L96 206z"/>

  <rect class="handle" x="66" y="204" width="150" height="31" rx="15.5" transform="rotate(-28 141 219.5)"/>
  <rect class="handle" x="284" y="204" width="150" height="31" rx="15.5" transform="rotate(28 359 219.5)"/>

  <circle class="body" cx="190" cy="184" r="17"/>
  <circle class="body" cx="312" cy="184" r="17"/>

  <rect class="hole" x="171" y="245" width="25" height="82" rx="10"/>
  <rect class="hole" x="237" y="245" width="26" height="82" rx="10"/>
  <rect class="hole" x="304" y="245" width="26" height="82" rx="10"/>
</svg>