<!-- <svg xmlns="http://www.w3.org/2000/svg" fill="none" class="icon icon-close" viewBox="0 0 18 17"><path fill="currentColor" d="M.865 15.978a.5.5 0 0 0 .707.707l7.433-7.431 7.579 7.282a.501.501 0 0 0 .846-.37.5.5 0 0 0-.153-.351L9.712 8.546l7.417-7.416a.5.5 0 1 0-.707-.708L8.991 7.853 1.413.573a.5.5 0 1 0-.693.72l7.563 7.268z"/></svg> -->
<svg
  xmlns="http://www.w3.org/2000/svg"
  class="icon icon-close"
  viewBox="0 0 18 18"
  fill="none"
>
  <path
    fill="currentColor"
    d="M2.2 0.8a1 1 0 0 0-1.4 1.4L7.6 9 .8 15.8a1 1 0 1 0 1.4 1.4L9 10.4l6.8 6.8a1 1 0 0 0 1.4-1.4L10.4 9l6.8-6.8A1 1 0 0 0 15.8.8L9 7.6z"
  />
</svg>