<!-- <svg xmlns="http://www.w3.org/2000/svg" fill="none" class="icon icon-hamburger" viewBox="0 0 18 16"><path fill="currentColor" d="M1 .5a.5.5 0 1 0 0 1h15.71a.5.5 0 0 0 0-1zM.5 8a.5.5 0 0 1 .5-.5h15.71a.5.5 0 0 1 0 1H1A.5.5 0 0 1 .5 8m0 7a.5.5 0 0 1 .5-.5h15.71a.5.5 0 0 1 0 1H1a.5.5 0 0 1-.5-.5"/></svg> -->

<svg
  xmlns="http://www.w3.org/2000/svg"
  class="icon icon-hamburger"
  viewBox="0 0 18 16"
  fill="none"
>
  <path
    fill="currentColor"
    d="M1 0h16a1 1 0 0 1 0 2H1A1 1 0 0 1 1 0Zm0 7h16a1 1 0 0 1 0 2H1A1 1 0 0 1 1 7Zm0 7h16a1 1 0 0 1 0 2H1A1 1 0 0 1 1 14Z"
  />
</svg>