<!-- <svg class="icon icon-facebook" viewBox="0 0 20 20"><path fill="currentColor" d="M18 10.049C18 5.603 14.419 2 10 2s-8 3.603-8 8.049C2 14.067 4.925 17.396 8.75 18v-5.624H6.719v-2.328h2.03V8.275c0-2.017 1.195-3.132 3.023-3.132.874 0 1.79.158 1.79.158v1.98h-1.009c-.994 0-1.303.621-1.303 1.258v1.51h2.219l-.355 2.326H11.25V18c3.825-.604 6.75-3.933 6.75-7.951"/></svg> -->

<!-- <svg class="icon icon-facebook" xmlns="http://www.w3.org/2000/svg" viewBox="0 0 508 508">

<g id="SVGRepo_bgCarrier" stroke-width="0"/>

<g  stroke-linecap="round" stroke-linejoin="round"/>

<g > <path style="fill:#2fb4c2;" d="M504,378.8c0,68.8-56.4,125.2-125.2,125.2H129.2C60.4,504,4,447.6,4,378.8V129.2 C4,60.4,60.4,4,129.2,4h249.6C447.6,4,504,60.4,504,129.2V378.8z"/> <path style="fill:#FFFFFF;" d="M214.4,408.8H274V254h47.2l5.6-63.6H278v-24c0-12,7.6-16,13.2-16h34.4v-52h-48.8 c-53.6,0-66.4,40-66.4,65.2v27.2h-27.6V254h31.6L214.4,408.8L214.4,408.8z"/> <path d="M274,412.8h-59.6c-2.4,0-4-1.6-4-4V258h-27.6c-2.4,0-4-1.6-4-4v-63.6c0-2.4,1.6-4,4-4h23.6v-23.2 c0-33.2,18.4-69.2,70.4-69.2h48.8c2.4,0,4,1.6,4,4v52.8c0,2.4-1.6,4-4,4h-34.4c-2,0-9.2,0.8-9.2,12v20h44.8c1.2,0,2,0.4,2.8,1.2 s1.2,2,1.2,3.2l-5.6,63.6c0,2-2,3.6-4,3.6H278V306c0,2.4-1.6,4-4,4s-4-1.6-4-4v-52c0-2.4,1.6-4,4-4h43.6l4.8-55.6H278 c-2.4,0-4-1.6-4-4v-24c0-13.6,8.8-20,17.2-20h30.4V102h-44.8c-10.4,0-62.4,2.8-62.4,61.2v27.2c0,2.4-1.6,4-4,4h-23.6V250h27.6 c2.4,0,4,1.6,4,4v150.8H270v-31.6c0-2.4,1.6-4,4-4s4,1.6,4,4v35.6C278,410.8,276,412.8,274,412.8z"/> <path d="M378.8,508H129.2C58,508,0,450,0,378.8V129.2C0,58,58,0,129.2,0h249.6C450,0,508,58,508,129.2v249.6 C508,450,450,508,378.8,508z M129.2,8C62.4,8,8,62.4,8,129.2v249.6C8,445.6,62.4,500,129.2,500h249.6c66.8,0,121.2-54.4,121.2-121.2 V129.2C500,62.4,445.6,8,378.8,8H129.2z"/> <path d="M370,484H138c-62,0-114-52.4-114-114.4V138C24,76,76,24,138,24h231.2c2.4,0,4,1.6,4,4s-1.6,4-4,4H138 C80.4,32,32,80.4,32,138v232c0,57.6,48.8,106.4,106,106.4h232c57.6,0,106-48.8,106-106.4V258c0-2.4,1.6-4,4-4s4,1.6,4,4v112 C484,432,432,484,370,484z"/> <path d="M446.8,65.2c-1.2,0-2-0.4-2.8-1.2c-20.4-20.4-47.6-32-75.2-32c-2.4,0-4-1.6-4-4s1.6-4,4-4c29.6,0,58.8,12.4,80.8,34.4 c1.6,1.6,1.6,4,0,5.6C449.2,64.8,448,65.2,446.8,65.2z"/> <path d="M480,234c-2.4,0-4-1.6-4-4v-59.2c0-2.4,1.6-4,4-4s4,1.6,4,4V230C484,232.4,482.4,234,480,234z"/> </g>

</svg> -->
<svg  class="icon icon-facebook"  xmlns="http://www.w3.org/2000/svg"  viewBox="0 0 415.2 415.2" xml:space="preserve" fill="#000000"><g id="SVGRepo_bgCarrier" stroke-width="0"></g>
<g  stroke-linecap="round" stroke-linejoin="round"></g>
<g > <path style="fill:#2FB4C2;" d="M399.2,46.4v322.4c0,14.4-12,26.4-26.4,26.4H272V248.8h84c4.8,0,8-4,8-8V184c0-4.8-3.2-8-8-8h-84 v-22.4c0-16.8,13.6-29.6,29.6-29.6h56.8c4.8,0,8-3.2,8-8V59.2c0-4.8-3.2-8-8-8h-72.8c-50.4,0.8-86.4,44-86.4,102.4V176h-41.6 c-4.8,0-8,3.2-8,8v56.8c0,4,3.2,8,8,8h40.8v146.4h-156c-14.4,0-26.4-12-26.4-26.4V46.4C16,32,28,20,42.4,20h330.4 C387.2,20,399.2,32,399.2,46.4z"></path> <path style="fill:#42210B;" d="M207.2,411.2H42.4C19.2,411.2,0,392,0,368.8V46.4C0,23.2,19.2,4,42.4,4h330.4 c23.2,0,42.4,19.2,42.4,42.4v322.4c0,23.2-19.2,42.4-42.4,42.4H264c-4,0-8-4-8-8V240.8c0-4.8,4-8,8-8h84V192h-84c-4,0-8-4-8-8v-30.4 c0-25.6,20.8-45.6,45.6-45.6h48.8V67.2h-64.8c-40.8,0.8-70.4,36.8-70.4,86.4V184c0,4-3.2,8-8,8h-41.6v40.8h40.8c4.8,0,8,3.2,8,8 v162.4C215.2,408,211.2,411.2,207.2,411.2z M149.6,240.8V184c0-4.8,3.2-8,8-8h40.8v-22.4c0-59.2,36-102.4,86.4-102.4h73.6 c4.8,0,8,3.2,8,8V116c0,4.8-3.2,8-8,8h-56.8c-16.8,0-29.6,13.6-29.6,29.6V176h84c4.8,0,8,3.2,8,8v56.8c0,4-3.2,8-8,8h-84v146.4 h100.8c14.4,0,26.4-12,26.4-26.4V46.4c0-14.4-12-26.4-26.4-26.4H42.4C28,20,16,32,16,46.4v322.4c0,14.4,12,26.4,26.4,26.4h156V248.8 h-40.8C153.6,248.8,149.6,245.6,149.6,240.8z"></path> <path style="fill:#1D9AAE;" d="M92.8,20l-57.6,1.6c-10.4,3.2-18.4,13.6-18.4,24.8v322.4c0,9.6,5.6,18.4,13.6,23.2V83.2 c0-29.6,23.2-54.4,53.6-56L240.8,20C240.8,20,92.8,20,92.8,20z"></path> </g></svg>